<svg width="9" height="7" viewBox="0 0 9 7" fill="none" xmlns="http://www.w3.org/2000/svg">
<path d="M4.85118 6.00009L8.85622 1.99498C8.94893 1.90235 9 1.77869 9 1.64684C9 1.51498 8.94893 1.39132 8.85622 1.29869L8.56135 1.00374C8.3692 0.811817 8.05691 0.811817 7.86506 1.00374L4.50187 4.36694L1.13494 1.00001C1.04224 0.907377 0.918653 0.856231 0.786875 0.856231C0.654949 0.856231 0.531364 0.907377 0.438584 1.00001L0.143783 1.29496C0.0510759 1.38767 2.83239e-06 1.51125 2.82663e-06 1.6431C2.82086e-06 1.77496 0.0510759 1.89861 0.143783 1.99125L4.15248 6.00009C4.24548 6.09295 4.36965 6.14395 4.50165 6.14365C4.63416 6.14395 4.75826 6.09295 4.85118 6.00009Z" fill="#838AA5"/>
</svg>
